<svg display="none" xmlns="http://www.w3.org/2000/svg">
    <symbol id="like" viewBox="0 0 26 24">
      <g clip-path="url(#clip0)">
        <path
          d="M3.22601 10.5843C1.81697 10.5843 0.669678 11.6401 0.669678 12.9367V20.4645C0.669678 21.7611 1.81697 22.8169 3.22601 22.8169H6.29363C6.86933 22.8169 7.39898 22.6381 7.82744 22.3407V10.5843H3.22601Z"
        />
        <path
          d="M25.2107 14.112C25.2107 13.5465 24.9674 13.0196 24.545 12.6309C25.0226 12.1501 25.2659 11.5055 25.1994 10.8346C25.0798 9.63866 23.909 8.70145 22.5327 8.70145H16.2165C16.5294 7.82728 17.0304 6.22484 17.0304 4.9376C17.0304 2.89663 15.1459 1.17374 13.9628 1.17374C12.9004 1.17374 12.1416 1.7242 12.1089 1.74679C11.9883 1.83619 11.9177 1.97169 11.9177 2.11469V5.3055L8.9728 11.1762L8.8501 11.2336V21.3189C9.68243 21.6802 10.7356 21.875 11.4064 21.875H20.7923C21.9059 21.875 22.8804 21.1843 23.1094 20.2312C23.227 19.7409 23.1585 19.2469 22.9243 18.8178C23.68 18.4678 24.1882 17.7517 24.1882 16.9349C24.1882 16.6018 24.1054 16.2829 23.9479 15.994C24.7035 15.6439 25.2107 14.9279 25.2107 14.112Z"
        />
      </g>
    </symbol>
    

    <symbol id="download" viewBox="0 0 59 55">
        <path d="M44.25 41.25C44.25 40.718 44.0415 40.2576 43.6245 39.8689C43.2074 39.4801 42.7136 39.2857 42.1429 39.2857C41.5722 39.2857 41.0783 39.4801 40.6613 39.8689C40.2443 40.2576 40.0358 40.718 40.0358 41.25C40.0358 41.782 40.2443 42.2424 40.6613 42.6311C41.0783 43.0199 41.5722 43.2143 42.1429 43.2143C42.7136 43.2143 43.2074 43.0199 43.6245 42.6311C44.0415 42.2424 44.25 41.782 44.25 41.25ZM52.6786 41.25C52.6786 40.718 52.4701 40.2576 52.0531 39.8689C51.636 39.4801 51.1422 39.2857 50.5715 39.2857C50.0008 39.2857 49.5069 39.4801 49.0899 39.8689C48.6728 40.2576 48.4643 40.718 48.4643 41.25C48.4643 41.782 48.6728 42.2424 49.0899 42.6311C49.5069 43.0199 50.0008 43.2143 50.5715 43.2143C51.1422 43.2143 51.636 43.0199 52.0531 42.6311C52.4701 42.2424 52.6786 41.782 52.6786 41.25ZM56.8929 34.375V44.1964C56.8929 45.0149 56.5856 45.7106 55.971 46.2835C55.3564 46.8564 54.6102 47.1429 53.7322 47.1429H5.26789C4.38992 47.1429 3.64364 46.8564 3.02905 46.2835C2.41447 45.7106 2.10718 45.0149 2.10718 44.1964V34.375C2.10718 33.5565 2.41447 32.8609 3.02905 32.2879C3.64364 31.715 4.38992 31.4286 5.26789 31.4286H20.5776L25.0224 35.6027C26.2954 36.7485 27.788 37.3214 29.5 37.3214C31.2121 37.3214 32.7046 36.7485 33.9777 35.6027L38.4554 31.4286H53.7322C54.6102 31.4286 55.3564 31.715 55.971 32.2879C56.5856 32.8609 56.8929 33.5565 56.8929 34.375ZM46.1926 16.9113C46.5657 17.7502 46.4121 18.4663 45.7316 19.0597L30.9816 32.8097C30.5865 33.1985 30.0927 33.3929 29.5 33.3929C28.9074 33.3929 28.4135 33.1985 28.0185 32.8097L13.2685 19.0597C12.588 18.4663 12.4344 17.7502 12.8075 16.9113C13.1807 16.1133 13.8282 15.7143 14.75 15.7143H23.1786V1.96429C23.1786 1.43229 23.3871 0.971912 23.8042 0.583147C24.2212 0.194382 24.7151 0 25.2857 0H33.7143C34.285 0 34.7789 0.194382 35.1959 0.583147C35.6129 0.971912 35.8215 1.43229 35.8215 1.96429V15.7143H44.25C45.1719 15.7143 45.8194 16.1133 46.1926 16.9113Z"/>
    </symbol>

     <symbol id="logo" viewBox="0 0 512 512">
      <g>
        <g>
          <path d="M512,45c0-24.813-20.187-45-45-45H45C20.187,0,0,20.187,0,45v302c0,24.813,20.187,45,45,45h135v31.507
            c-34.191,6.969-60,37.274-60,73.493c0,8.284,6.716,15,15,15h242.115c0.013,0,0.026-0.002,0.039-0.002
            C451.523,511.914,512,451.388,512,377c0-6.466-0.467-12.823-1.35-19.049c0.894-3.568,1.35-7.235,1.35-10.951V45z M45,362
            c-8.271,0-15-6.729-15-15v-15.1h219.722c-3.388,9.555-5.729,19.701-6.884,30.1H45z M249.722,422H210v-30h32.838
            C243.993,402.399,246.333,412.445,249.722,422z M152.57,482c6.191-17.461,22.874-30,42.43-30h69.806
            c7.598,11.328,16.866,21.444,27.446,30H152.57z M377,482c-57.897,0-105-47.103-105-105c0-57.897,47.103-105,105-105
            c57.897,0,105,47.103,105,105C482,434.897,434.897,482,377,482z M482,292.251C457.231,261.624,419.367,242,377,242
            c-46.708,0-87.947,23.846-112.194,60H30V45c0-8.271,6.729-15,15-15h422c8.271,0,15,6.729,15,15V292.251z"/>
        </g>
      </g>
      <g>
        <g>
          <path d="M232.62,107.107c-1.405-0.834,8.685,5.266-74.596-45.229c-4.767-2.89-10.743-2.898-15.516-0.022L67.44,107.072
            c-4.444,2.596-7.439,7.48-7.439,12.957v90.647c0,5.2,2.693,10.029,7.118,12.762l75,46.324c2.268,1.399,5.05,2.238,7.882,2.238
            c2.774,0,5.574-0.814,7.882-2.238l75-46.324c4.424-2.733,7.118-7.562,7.118-12.762v-90.647
            C240,111.065,232.717,107.207,232.62,107.107z M135,230.105l-45-27.794V146.62l45,27.194V230.105z M150,147.826l-45.963-27.776
            l46.185-27.818l45.812,27.776L150,147.826z M210,202.311l-45,27.794v-56.29l45-27.194V202.311z"/>
        </g>
      </g>
      <g>
        <g>
          <path d="M407,91h-60c-8.284,0-15,6.716-15,15s6.716,15,15,15h60c8.284,0,15-6.716,15-15S415.284,91,407,91z"/>
        </g>
      </g>
      <g>
        <g>
          <path d="M407,151h-60c-8.284,0-15,6.716-15,15s6.716,15,15,15h60c8.284,0,15-6.716,15-15S415.284,151,407,151z"/>
        </g>
      </g>
      <g>
        <g>
          <path d="M377,332c-24.813,0-45,20.187-45,45c0,0.026,0.002,0.051,0.002,0.077v0.257c0,0.088,0.012,0.172,0.013,0.259
            C332.335,402.133,352.385,422,377,422c24.813,0,45-20.187,45-45S401.813,332,377,332z M377,392
            c-8.259,0-14.977-6.708-14.998-14.961V377c0-0.007-0.001-0.013-0.001-0.019C362.012,368.719,368.735,362,377,362
            c8.271,0,15,6.729,15,15S385.271,392,377,392z"/>
        </g>
      </g>
      <g>
    </symbol>
</svg>