<svg width="18" height="18" viewBox="0 0 18 18" fill="none" xmlns="http://www.w3.org/2000/svg">
<path d="M17.8198 16.9114L11.4157 10.5073C13.6651 7.75632 13.2584 3.70274 10.5074 1.45339C7.7564 -0.795969 3.70278 -0.389264 1.45342 2.36173C-0.79594 5.11272 -0.389234 9.16633 2.36176 11.4157C4.73134 13.3532 8.13781 13.3532 10.5074 11.4157L16.9115 17.8198C17.1667 18.0662 17.5733 18.0592 17.8198 17.8039C18.0602 17.555 18.0602 17.1603 17.8198 16.9114ZM6.44485 11.584C3.60789 11.5808 1.30884 9.28177 1.30568 6.44481C1.30568 3.60653 3.60657 1.30565 6.44485 1.30565C9.28314 1.30565 11.584 3.60653 11.584 6.44481C11.584 9.28309 9.28314 11.584 6.44485 11.584Z" fill="#1EBEA5"/>
</svg>
