<svg width="18" height="18" viewBox="0 0 18 18" fill="none" xmlns="http://www.w3.org/2000/svg">
<g clip-path="url(#clip0)">
<path d="M17.8197 16.9114L11.4156 10.5073C13.665 7.75631 13.2583 3.70273 10.5073 1.45337C7.75627 -0.795985 3.70265 -0.38928 1.4533 2.36171C-0.796062 5.11271 -0.389356 9.16632 2.36164 11.4157C4.73122 13.3531 8.13768 13.3531 10.5073 11.4157L16.9113 17.8198C17.1665 18.0662 17.5732 18.0592 17.8197 17.8039C18.0601 17.555 18.0601 17.1603 17.8197 16.9114ZM6.44473 11.584C3.60776 11.5808 1.30872 9.28177 1.30556 6.4448C1.30556 3.60652 3.60645 1.30563 6.44473 1.30563C9.28301 1.30563 11.5839 3.60652 11.5839 6.4448C11.5839 9.28308 9.28301 11.584 6.44473 11.584Z" fill="#2196F3"/>
</g>
<defs>
<clipPath id="clip0">
<rect width="18" height="18" fill="white"/>
</clipPath>
</defs>
</svg>
