<svg width="42" height="36" viewBox="0 0 42 36" fill="none" xmlns="http://www.w3.org/2000/svg">
<path d="M32.3077 31.5C32.3077 31.0938 32.1478 30.7422 31.8281 30.4453C31.5084 30.1484 31.1298 30 30.6923 30C30.2548 30 29.8762 30.1484 29.5565 30.4453C29.2368 30.7422 29.0769 31.0938 29.0769 31.5C29.0769 31.9062 29.2368 32.2578 29.5565 32.5547C29.8762 32.8516 30.2548 33 30.6923 33C31.1298 33 31.5084 32.8516 31.8281 32.5547C32.1478 32.2578 32.3077 31.9062 32.3077 31.5ZM38.7692 31.5C38.7692 31.0938 38.6094 30.7422 38.2897 30.4453C37.9699 30.1484 37.5913 30 37.1538 30C36.7163 30 36.3377 30.1484 36.018 30.4453C35.6983 30.7422 35.5385 31.0938 35.5385 31.5C35.5385 31.9062 35.6983 32.2578 36.018 32.5547C36.3377 32.8516 36.7163 33 37.1538 33C37.5913 33 37.9699 32.8516 38.2897 32.5547C38.6094 32.2578 38.7692 31.9062 38.7692 31.5ZM42 26.25V33.75C42 34.375 41.7644 34.9062 41.2933 35.3438C40.8221 35.7812 40.25 36 39.5769 36H2.42308C1.75 36 1.17788 35.7812 0.706731 35.3438C0.235577 34.9062 0 34.375 0 33.75V26.25C0 25.625 0.235577 25.0938 0.706731 24.6562C1.17788 24.2188 1.75 24 2.42308 24H14.1599L17.5673 27.1875C18.5433 28.0625 19.6875 28.5 21 28.5C22.3125 28.5 23.4567 28.0625 24.4327 27.1875L27.8654 24H39.5769C40.25 24 40.8221 24.2188 41.2933 24.6562C41.7644 25.0938 42 25.625 42 26.25ZM33.7969 12.9141C34.0829 13.5547 33.9651 14.1016 33.4435 14.5547L22.1358 25.0547C21.8329 25.3516 21.4543 25.5 21 25.5C20.5457 25.5 20.1671 25.3516 19.8642 25.0547L8.55649 14.5547C8.03486 14.1016 7.91707 13.5547 8.20312 12.9141C8.48918 12.3047 8.98558 12 9.69231 12H16.1538V1.5C16.1538 1.09375 16.3137 0.742188 16.6334 0.445312C16.9531 0.148438 17.3317 0 17.7692 0H24.2308C24.6683 0 25.0469 0.148438 25.3666 0.445312C25.6863 0.742188 25.8462 1.09375 25.8462 1.5V12H32.3077C33.0144 12 33.5108 12.3047 33.7969 12.9141Z" fill="white"/>
</svg>
