<svg width="26" height="24" viewBox="0 0 26 24"  xmlns="http://www.w3.org/2000/svg">
<g clip-path="url(#clip0)">
<path d="M3.22601 10.5843C1.81697 10.5843 0.669678 11.6401 0.669678 12.9367V20.4645C0.669678 21.7611 1.81697 22.8169 3.22601 22.8169H6.29363C6.86933 22.8169 7.39898 22.6381 7.82744 22.3407V10.5843H3.22601Z"/>
<path d="M25.2107 14.112C25.2107 13.5465 24.9674 13.0196 24.545 12.6309C25.0226 12.1501 25.2659 11.5055 25.1994 10.8346C25.0798 9.63866 23.909 8.70145 22.5327 8.70145H16.2165C16.5294 7.82728 17.0304 6.22484 17.0304 4.9376C17.0304 2.89663 15.1459 1.17374 13.9628 1.17374C12.9004 1.17374 12.1416 1.7242 12.1089 1.74679C11.9883 1.83619 11.9177 1.97169 11.9177 2.11469V5.3055L8.9728 11.1762L8.8501 11.2336V21.3189C9.68243 21.6802 10.7356 21.875 11.4064 21.875H20.7923C21.9059 21.875 22.8804 21.1843 23.1094 20.2312C23.227 19.7409 23.1585 19.2469 22.9243 18.8178C23.68 18.4678 24.1882 17.7517 24.1882 16.9349C24.1882 16.6018 24.1054 16.2829 23.9479 15.994C24.7035 15.6439 25.2107 14.9279 25.2107 14.112Z"/>
</g>
<defs>
<clipPath id="clip0">
<rect width="24.5409" height="22.5832" fill="white" transform="translate(0.669678 0.704147)"/>
</clipPath>
</defs>
</svg>
