<svg width="16" height="16" viewBox="0 0 16 16" fill="none" xmlns="http://www.w3.org/2000/svg">
<g clip-path="url(#clip0)">
<path d="M15.1795 2.66663H0.820531C0.369219 2.66663 0 3.03584 0 3.48713V12.5128C0 12.964 0.369219 13.3333 0.820531 13.3333H15.1795C15.6307 13.3333 16 12.9641 16 12.5128V3.48713C16 3.03584 15.6308 2.66663 15.1795 2.66663ZM14.8716 3.28197L8.472 8.08203C8.35694 8.16959 8.18031 8.22438 7.99997 8.22356C7.81966 8.22438 7.64306 8.16959 7.52797 8.08203L1.12841 3.28197H14.8716ZM11.4531 8.39875L14.9403 12.7065C14.9438 12.7108 14.9481 12.7141 14.9518 12.718H1.04819C1.05187 12.7139 1.05619 12.7108 1.05969 12.7065L4.54688 8.39875C4.65372 8.26666 4.63347 8.073 4.50112 7.96591C4.36903 7.85906 4.17538 7.87931 4.0685 8.01144L0.615375 12.2771V3.66659L7.15894 8.57428C7.40491 8.75747 7.70416 8.83809 7.99994 8.83891C8.29531 8.83828 8.59481 8.75766 8.84094 8.57428L15.3845 3.66659V12.277L11.9315 8.01144C11.8246 7.87934 11.6308 7.85903 11.4988 7.96591C11.3665 8.07275 11.3462 8.26666 11.4531 8.39875Z" fill="#2196F3"/>
</g>
<defs>
<clipPath id="clip0">
<rect width="16" height="16" fill="white"/>
</clipPath>
</defs>
</svg>
