<svg width="58" height="58" viewBox="0 0 58 58" fill="none" xmlns="http://www.w3.org/2000/svg">
<g clip-path="url(#clip0)">
<path d="M55.3435 32.0411C55.4656 31.0269 55.5268 30.0064 55.5268 28.9848C55.4339 14.2793 43.5049 2.42489 28.8621 2.48653C27.846 2.49709 26.8314 2.56906 25.8238 2.7021C17.918 -2.25896 7.50453 0.155676 2.56471 8.09544C-0.888302 13.6454 -0.852019 20.6959 2.65807 26.2097C2.53701 27.2231 2.47654 28.2428 2.47722 29.2634C2.56889 43.969 14.4967 55.8246 29.1395 55.7642C30.1564 55.7536 31.1718 55.6816 32.1802 55.5487C40.0873 60.5076 50.5001 58.09 55.4378 50.1487C58.8879 44.6002 58.8511 37.5532 55.3435 32.0411ZM29.1008 48.5087C19.74 48.5572 14.6038 42.9849 14.5894 40.1079V38.897C14.5746 36.8908 16.1819 35.2525 18.1794 35.2375C20.0733 35.2234 21.6575 36.679 21.8113 38.5748C22.7541 40.4371 26.0987 41.258 29.0694 41.2387C29.366 41.2387 36.3034 41.1443 36.2769 36.3566C36.2769 34.0439 33.2 33.1139 28.1531 31.8546C22.0813 30.3362 14.5338 28.4521 14.4903 20.7244C14.4373 10.9552 22.0089 9.78799 27.6948 9.75643C35.7535 9.71522 40.9741 13.0161 41.0006 18.1622C41.017 20.1684 39.4109 21.808 37.4134 21.8245C35.5878 21.8396 34.0373 20.486 33.7979 18.6684C31.9898 17.3818 29.7788 16.7967 27.5742 17.0216C26.1378 16.9269 24.6966 17.1043 23.3255 17.5447C22.5731 17.8812 21.7123 18.5424 21.7219 20.6928C21.7219 22.4897 25.3606 23.485 29.197 24.5385C35.5509 26.2797 43.4577 28.4495 43.4987 36.3201C43.5445 43.6701 37.8923 48.4529 29.103 48.4989L29.1008 48.5087Z" fill="#2196F3"/>
</g>
<defs>
<clipPath id="clip0">
<rect width="58" height="58" fill="white"/>
</clipPath>
</defs>
</svg>
