<svg width="15" height="15" viewBox="0 0 15 15" fill="none" xmlns="http://www.w3.org/2000/svg">
<g clip-path="url(#clip0)">
<path d="M15 7.50029C15.0002 7.58323 14.9674 7.66283 14.9088 7.72154L9.28376 13.3465C9.15963 13.4665 8.96179 13.463 8.84188 13.3389C8.72492 13.2178 8.72492 13.0258 8.84188 12.9047L14.2456 7.50032L8.84188 2.09657C8.72196 1.97244 8.72542 1.7746 8.84955 1.65468C8.97067 1.5377 9.16265 1.5377 9.28376 1.65468L14.9088 7.27968C14.9672 7.33822 15 7.41755 15 7.50029Z" fill="#7D7D7D"/>
<path d="M15 7.50029C15 7.67288 14.8601 7.81281 14.6875 7.81281L0.31251 7.81281C0.139922 7.81278 0 7.67288 0 7.50029C0 7.32771 0.139922 7.18778 0.31251 7.18778L14.6875 7.18778C14.8601 7.18778 15 7.32771 15 7.50029Z" fill="#7D7D7D"/>
</g>
<defs>
<clipPath id="clip0">
<rect width="15" height="15" fill="white" transform="translate(0 15) rotate(-90)"/>
</clipPath>
</defs>
</svg>
