<svg width="16" height="16" viewBox="0 0 16 16" fill="none" xmlns="http://www.w3.org/2000/svg">
<g clip-path="url(#clip0)">
<path d="M6.18439 12.929L1.09251 7.83775L14.7131 7.83775C14.8857 7.83775 15.0256 7.69782 15.0256 7.52524C15.0256 7.35265 14.8857 7.21273 14.7131 7.21273L1.09251 7.21273L6.18439 2.12149C6.30431 1.99736 6.30085 1.79952 6.17672 1.6796C6.05561 1.56265 5.86362 1.56265 5.74254 1.6796L0.117538 7.3046C-0.0046587 7.42648 -0.00489235 7.62435 0.116982 7.74655C0.117159 7.74672 0.117363 7.74693 0.117538 7.7471L5.74254 13.3721C5.86667 13.492 6.06451 13.4886 6.18442 13.3644C6.30141 13.2433 6.30141 13.0513 6.18442 12.9302L6.18439 12.929Z" fill="#FFC107"/>
<path d="M0.0256114 7.52528C0.025465 7.44234 0.0582771 7.36275 0.116871 7.30403L5.74187 1.67903C5.866 1.55912 6.06385 1.56258 6.18376 1.68671C6.30071 1.80782 6.30071 1.99981 6.18376 2.12089L0.780006 7.52526L6.18376 12.929C6.30367 13.0531 6.30021 13.251 6.17608 13.3709C6.05497 13.4879 5.86299 13.4879 5.74187 13.3709L0.116871 7.74589C0.0584531 7.68736 0.0256405 7.60802 0.0256114 7.52528Z" fill="#7D7D7D"/>
<path d="M0.0256329 7.52528C0.0256329 7.35269 0.165555 7.21277 0.338142 7.21277L14.7131 7.21277C14.8857 7.2128 15.0256 7.35269 15.0256 7.52528C15.0256 7.69787 14.8857 7.83779 14.7131 7.83779L0.338113 7.83779C0.165554 7.83779 0.0256329 7.69787 0.0256329 7.52528Z" fill="#7D7D7D"/>
</g>
<defs>
<clipPath id="clip0">
<rect width="15" height="15" fill="white" transform="translate(15.0256 0.0255737) rotate(90)"/>
</clipPath>
</defs>
</svg>
