<svg width="58" height="58" viewBox="0 0 58 58" fill="none" xmlns="http://www.w3.org/2000/svg">
<path d="M58 29C58 45.0151 45.0151 58 29 58C12.9849 58 0 45.0151 0 29C0 12.9849 12.9849 0 29 0C45.0151 0 58 12.9849 58 29Z" fill="url(#paint0_linear)"/>
<path d="M30.4491 18.8519H13.051C12.2486 18.8519 11.6019 19.4985 11.6019 20.3009V34.8009C11.6019 38.0011 14.198 39.1481 17.3982 39.1481H34.801C35.5987 39.1481 36.25 38.5014 36.25 37.699V24.6481C36.25 21.4479 33.654 18.8519 30.4491 18.8519Z" fill="white"/>
<path d="M39.1481 25.3467V32.6533C39.1481 33.097 39.351 33.5124 39.6956 33.7861L45.2228 38.2088C45.6948 38.5864 46.3981 38.2513 46.3981 37.6424V20.3576C46.3981 19.7487 45.6948 19.4136 45.2228 19.7912L39.6956 24.2139C39.351 24.4923 39.1481 24.9077 39.1481 25.3467Z" fill="#FEFEFE"/>
<defs>
<linearGradient id="paint0_linear" x1="118.9" y1="14.9833" x2="118.9" y2="222.816" gradientUnits="userSpaceOnUse">
<stop stop-color="#0A85D9"/>
<stop offset="1" stop-color="#33BEF0"/>
</linearGradient>
</defs>
</svg>
